<?xml version="1.0" encoding="UTF-8"?>
<svg width="146px" height="72px" viewBox="0 0 146 72" version="1.1" xmlns="http://www.w3.org/2000/svg" xmlns:xlink="http://www.w3.org/1999/xlink">
    <!-- Generator: Sketch 49.3 (51167) - http://www.bohemiancoding.com/sketch -->
    <title>Logos/GowerColour</title>
    <desc>Created with Sketch.</desc>
    <defs></defs>
    <g id="Wide-Desktop" stroke="none" stroke-width="1" fill="none" fill-rule="evenodd">
        <g id="Gower-PersonalHome-WideDesktop" transform="translate(-450.000000, -59.000000)">
            <g id="Logos/GowerColour" transform="translate(450.000000, 60.000000)">
                <path d="M42.7412142,35.3349764 C38.180839,35.3349764 34.5806803,38.8143316 34.5806803,44.5508992 C34.5806803,50.9889911 38.3009314,55.3183985 43.6612257,55.3183985 C48.2618057,55.3183985 51.8222817,51.6915433 51.8222817,45.9570315 C51.8222817,39.850943 48.2618057,35.3349764 42.7412142,35.3349764 M42.8211017,58.2421875 C35.2208246,58.2421875 30.1001927,52.8016478 30.1001927,45.6610036 C30.1001927,38.1847585 35.7805592,32.4492188 43.621543,32.4492188 C51.2218202,32.4492188 56.2620424,37.8512132 56.2620424,45.0314305 C56.2620424,52.3211164 50.8615432,58.2421875 42.8211017,58.2421875" id="Fill-1" fill="#750A0C"></path>
                <path d="M23.0674374,46.5493202 L16.8907313,46.5493202 L16.8907313,46.7841848 C17.5056965,47.1192652 17.8574025,47.9266446 17.8574025,49.8790533 L17.8574025,54.7258989 C16.9006165,55.0594375 15.3059733,55.3554595 14.0307791,55.3554595 C7.81245099,55.3554595 4.70432751,50.2490807 4.70432751,45.2172214 C4.70432751,40.2213369 7.77343036,35.2619413 13.9516972,35.2619413 C17.4510676,35.2619413 20.428602,36.8448365 21.6829853,39.6185005 L21.9228321,39.6185005 L21.9228321,33.9663313 C20.2090459,33.0777515 17.3392085,32.4492188 14.469371,32.4492188 C4.82347051,32.4492188 0,39.2217489 0,45.8457541 C0,52.1362207 4.38539887,58.2421875 13.1145746,58.2421875 C16.0640142,58.2421875 19.7309131,57.7241491 22.1226178,56.6875583 L22.1226178,49.8045339 C22.1226178,47.8701126 22.4639183,47.0863739 23.0674374,46.7672252 L23.0674374,46.5493202 Z" id="Fill-3" fill="#750A0C"></path>
                <path d="M118.206734,52.2967946 C117.063323,54.5801107 115.537745,55.055201 112.751681,55.055201 L106.864433,55.055201 L106.864433,46.4577645 L111.685117,46.4577645 C113.43453,46.4577645 114.138524,46.5663713 114.421153,47.1603629 L114.608369,47.1603629 L114.608369,43.1202935 L114.434563,43.1202935 C114.158638,43.6571507 113.453097,43.8270097 111.645405,43.8270097 L106.864433,43.8270097 L106.864433,35.5976009 L112.475241,35.5976009 C115.287608,35.5976009 116.278873,36.8890437 116.644021,37.9812882 L116.821438,37.9812882 L116.821438,33.0039062 L101.271676,33.0039062 L101.271676,33.1958983 C101.949883,33.5201745 102.478523,34.3982938 102.478523,36.7835252 L102.478523,53.7215509 C102.478523,56.2426695 102.055611,57.1573342 101.448577,57.4924196 L101.448577,57.6875 L117.453744,57.6875 L118.431599,52.2967946 L118.206734,52.2967946 Z" id="Fill-5" fill="#750A0C"></path>
                <path d="M134.35157,44.0594344 L131.378131,44.0594344 L131.378131,35.5980616 L134.35157,35.5980616 C137.842062,35.5980616 139.626126,37.8216233 139.626126,40.1579072 C139.626126,42.6038251 138.158297,44.0594344 134.35157,44.0594344 Z M146,57.4780117 C145.253664,57.220655 144.641896,56.6498379 143.752711,55.2415821 L139.308855,47.9872121 C138.674832,46.9495499 137.960586,46.1718181 137.286192,45.9124025 C141.926207,45.4676902 144.066876,43.0480227 144.066876,40.009155 C144.066876,36.3027042 140.854837,33.0039062 135.18434,33.0039062 L126.026975,33.0039062 L126.026975,33.1969238 C126.672902,33.5299433 127.175463,34.3663525 127.175463,36.0242442 L127.175463,53.4436884 C127.175463,56.6014548 126.816787,57.1686689 126.232968,57.4934531 L126.232968,57.6875 L132.340811,57.6875 L132.340811,57.4831588 C131.758545,57.150654 131.417984,56.2699794 131.417984,53.943475 L131.417984,46.468293 L132.092377,46.468293 C133.281753,46.468293 134.035335,47.0983021 135.026482,48.7278846 L140.343478,57.6875 L146,57.6875 L146,57.4780117 Z" id="Fill-7" fill="#750A0C"></path>
                <path d="M89.3806516,33.0039062 L89.3806516,33.1840597 C89.8066051,33.4048763 90.0206158,33.8918053 90.0206158,34.9680934 C90.0206158,35.4498751 89.941008,36.0804121 89.6644483,36.8581602 L84.5948772,50.9420408 L79.6442009,37.0058861 C79.3278374,36.1164428 79.1691386,35.4498751 79.1691386,34.9310332 C79.1691386,33.862466 79.3614381,33.3837726 79.7496554,33.1706769 L79.7496554,33.0039062 L73.1406551,33.0039062 L73.1406551,33.1809713 C73.7056639,33.4923794 74.3663055,34.3591748 75.1691039,36.78404 L75.4978738,37.7753986 L76.9122051,42.1222435 L82.4160007,57.6875 L85.5848057,57.6875 L92.8322194,37.265307 C93.8128431,34.4878558 94.6347681,33.5227481 95.3641618,33.1861186 L95.3641618,33.0039062 L89.3806516,33.0039062 Z" id="Fill-9" fill="#750A0C"></path>
                <path d="M72.2967245,51.3831593 C72.241039,51.2271979 67.1850018,37.0058861 67.1850018,37.0058861 C66.868935,36.0804121 66.7101282,35.412815 66.7101282,34.856913 C66.7101282,33.888717 66.9421511,33.4249506 67.2788421,33.2031045 L67.2788421,33.0039062 L59.9190751,33.0039062 L59.9190751,33.2149431 C60.6311277,33.5701027 61.4927061,34.5259454 62.404814,37.1175812 L69.6728031,57.6875 L69.907404,57.6875 L72.2967245,51.3831593 Z" id="Fill-11" fill="#750A0C"></path>
                <polygon id="Fill-13" fill="#818084" points="66.38921 65.1757812 66.0916803 65.9706782 64.215232 65.9706782 64.215232 67.6504114 66.0916803 67.6504114 66.0916803 68.4453083 64.215232 68.4453083 64.215232 71 63.2947977 71 63.2947977 65.1757812"></polygon>
                <polygon id="Fill-15" fill="#818084" points="67.5144509 71 68.3583815 71 68.3583815 65.1757812 67.5144509 65.1757812"></polygon>
                <path d="M75.1098266,71 L74.2600556,71 L71.5324402,67.4227038 C71.2655018,67.0686653 71.0732856,66.78793 70.9573374,66.5810176 L70.9573374,67.3405627 L70.9573374,71 L70.0462428,71 L70.0462428,65.1757812 L70.9573374,65.1757812 L73.5854951,68.6220676 C73.883353,69.0171766 74.0848451,69.3093493 74.1899714,69.4970261 L74.1899714,68.6839334 L74.1899714,65.1757812 L75.1098266,65.1757812 L75.1098266,71 Z" id="Fill-17" fill="#818084"></path>
                <path d="M79.4676909,68.7477341 L78.9402975,67.1993014 C78.8366391,66.8877517 78.767365,66.6502081 78.7329808,66.4866704 L78.7238791,66.4866704 C78.683427,66.6615936 78.6085907,66.8960321 78.4988646,67.1879158 L77.9492225,68.7477341 L79.4676909,68.7477341 Z M81.2986513,71 L80.3192063,71 L79.7589456,69.5219505 L77.6665639,69.5219505 L77.1290575,71 L76.2350674,71 L78.4275679,65.1757812 L79.0550801,65.1757812 L81.2986513,71 Z" id="Fill-18" fill="#818084"></path>
                <path d="M87.4874759,71 L86.6377049,71 L83.9100895,67.4227038 C83.6426358,67.0686653 83.4509349,66.78793 83.3344714,66.5810176 L83.3344714,67.3405627 L83.3344714,71 L82.4238921,71 L82.4238921,65.1757812 L83.3344714,65.1757812 L85.9631445,68.6220676 C86.260487,69.0171766 86.4624944,69.3093493 86.5676207,69.4970261 L86.5676207,68.6839334 L86.5676207,65.1757812 L87.4874759,65.1757812 L87.4874759,71 Z" id="Fill-19" fill="#818084"></path>
                <path d="M93.6763006,70.499505 C93.0877212,70.8335067 92.4726531,71 91.8305665,71 C90.9288905,71 90.2089271,70.7264028 89.6690869,70.1802237 C89.1520271,69.6507954 88.894027,68.9695943 88.894027,68.1350976 C88.894027,67.2955248 89.1838136,66.5924968 89.762857,66.025506 C90.3424302,65.4590228 91.0978885,65.1757812 92.0281724,65.1757812 C92.6522466,65.1757812 93.1629492,65.2818699 93.5592204,65.4950625 L93.5412081,66.3574774 C93.0728875,66.0818498 92.5711912,65.942767 92.0371786,65.942767 C91.3765499,65.942767 90.8515434,66.152914 90.4616295,66.5737156 C90.1008531,66.9640611 89.9207298,67.4620181 89.9207298,68.0665714 C89.9207298,68.6873679 90.1056211,69.1980149 90.4748738,69.5985125 C90.8435968,69.9979948 91.3442336,70.1969745 91.9741354,70.1969745 C92.454111,70.1969745 92.9319675,70.074135 93.4061156,69.8264255 L93.6763006,70.499505 Z" id="Fill-20" fill="#818084"></path>
                <polygon id="Fill-21" fill="#818084" points="94.8015414 71 95.6454721 71 95.6454721 65.1757812 94.8015414 65.1757812"></polygon>
                <path d="M100.003336,68.7477341 L99.4759429,67.1993014 C99.3722846,66.8877517 99.3030105,66.6502081 99.2686262,66.4866704 L99.2595245,66.4866704 C99.2190725,66.6615936 99.1442362,66.8960321 99.0345101,67.1879158 L98.484868,68.7477341 L100.003336,68.7477341 Z M101.834297,71 L100.854852,71 L100.294591,69.5219505 L98.2022094,69.5219505 L97.6647029,71 L96.7707129,71 L98.9632134,65.1757812 L99.5907256,65.1757812 L101.834297,71 Z" id="Fill-22" fill="#818084"></path>
                <polygon id="Fill-23" fill="#818084" points="106.05395 71 102.959538 71 102.959538 65.1757812 103.891818 65.1757812 103.891818 70.2051031 106.05395 70.2051031"></polygon>
                <path d="M112.805395,69.420852 C112.805395,69.8929213 112.619982,70.2736224 112.248133,70.5639704 C111.876795,70.8543184 111.409167,71 110.84627,71 C110.213204,71 109.647747,70.8365523 109.148362,70.5086418 L109.53148,69.8264255 C109.937646,70.1137279 110.363788,70.2573791 110.810929,70.2573791 C111.084438,70.2573791 111.313387,70.2000202 111.499312,70.0853022 C111.719553,69.9523107 111.830186,69.7680513 111.830186,69.5320167 C111.830186,69.2147658 111.615579,68.9269558 111.185852,68.6675715 C110.790954,68.4254456 110.396056,68.1863653 110.00167,67.949823 C109.571943,67.6107453 109.357848,67.1919741 109.357848,66.6965551 C109.357848,66.2640787 109.518675,65.9031741 109.840842,65.6118109 C110.16301,65.3214629 110.601956,65.1757812 111.15973,65.1757812 C111.682164,65.1757812 112.134427,65.2788243 112.517545,65.4859257 L112.509349,66.3315897 C112.060672,66.0671294 111.623262,65.935153 111.198144,65.935153 C110.930269,65.935153 110.717199,65.9894663 110.559956,66.0986006 C110.379154,66.2138262 110.289008,66.378289 110.289008,66.5904664 C110.289008,66.8899513 110.507201,67.1711625 110.944098,67.4361304 C111.346167,67.6777487 111.748236,67.9198746 112.149792,68.1609852 C112.58669,68.5056466 112.805395,68.9259406 112.805395,69.420852" id="Fill-24" fill="#818084"></path>
                <polygon id="Fill-25" fill="#818084" points="117.306358 71 114.211946 71 114.211946 65.1757812 117.298107 65.1757812 117.008779 65.9706782 115.132534 65.9706782 115.132534 67.6238975 117.008779 67.6238975 117.008779 68.4187944 115.132534 68.4187944 115.132534 70.2051031 117.306358 70.2051031"></polygon>
                <path d="M121.28257,66.8986645 C121.28257,66.6278069 121.198771,66.4120566 121.030112,66.2540129 C120.843951,66.0710151 120.567626,65.9795162 120.201138,65.9795162 L119.659627,65.9795162 L119.659627,67.9150304 L120.21864,67.9150304 C120.519362,67.9150304 120.77182,67.8167731 120.976014,67.6197384 C121.180738,67.421664 121.28257,67.1819992 121.28257,66.8986645 M122.932563,71 L121.832568,71 C121.207257,69.992472 120.850315,69.4211236 120.760152,69.284915 C120.495495,68.8846072 120.311986,68.6693767 120.210154,68.6402634 L119.659627,68.6402634 L119.659627,71 L118.712909,71 L118.712909,65.1757812 L120.191591,65.1757812 C120.895397,65.1757812 121.42418,65.3348646 121.779,65.6530313 C122.09086,65.9348065 122.24732,66.318998 122.24732,66.8014469 C122.24732,67.1726414 122.135941,67.4996461 121.913715,67.7829808 C121.715355,68.029924 121.453881,68.2155212 121.129292,68.3392527 L121.129292,68.3486106 C121.238019,68.4073571 121.450698,68.6787346 121.769453,69.1611835 C121.913715,69.3790133 122.301948,69.992472 122.932563,71" id="Fill-26" fill="#818084"></path>
                <path d="M128.558767,65.1757812 L125.971074,71 L125.330913,71 L122.932563,65.1757812 L123.961488,65.1757812 L125.330382,68.6407967 C125.431684,68.8988023 125.553669,69.2264694 125.69687,69.6243141 L125.715433,69.623282 C125.820978,69.3147073 125.947207,68.9942644 126.096242,68.6619531 L127.586061,65.1757812 L128.558767,65.1757812 Z" id="Fill-27" fill="#818084"></path>
                <polygon id="Fill-28" fill="#818084" points="129.402697 71 130.246628 71 130.246628 65.1757812 129.402697 65.1757812"></polygon>
                <path d="M136.435453,70.499505 C135.846873,70.8335067 135.231805,71 134.589719,71 C133.688043,71 132.968079,70.7264028 132.428239,70.1802237 C131.911179,69.6507954 131.653179,68.9695943 131.653179,68.1350976 C131.653179,67.2955248 131.942966,66.5924968 132.522009,66.025506 C133.101582,65.4590228 133.857041,65.1757812 134.787325,65.1757812 C135.411399,65.1757812 135.922101,65.2818699 136.318373,65.4950625 L136.30036,66.3574774 C135.83204,66.0818498 135.330343,65.942767 134.796331,65.942767 C134.135702,65.942767 133.610696,66.152914 133.220782,66.5737156 C132.860005,66.9640611 132.679882,67.4620181 132.679882,68.0665714 C132.679882,68.6873679 132.864773,69.1980149 133.234026,69.5985125 C133.602749,69.9979948 134.103386,70.1969745 134.733288,70.1969745 C135.213263,70.1969745 135.69112,70.074135 136.165268,69.8264255 L136.435453,70.499505 Z" id="Fill-29" fill="#818084"></path>
                <polygon id="Fill-30" fill="#818084" points="140.655106 71 137.560694 71 137.560694 65.1757812 140.64634 65.1757812 140.357061 65.9706782 138.481128 65.9706782 138.481128 67.6238975 140.357061 67.6238975 140.357061 68.4187944 138.481128 68.4187944 138.481128 70.2051031 140.655106 70.2051031"></polygon>
                <path d="M145.43738,69.420852 C145.43738,69.8929213 145.251455,70.2736224 144.880117,70.5639704 C144.50878,70.8543184 144.041151,71 143.478255,71 C142.845189,71 142.279219,70.8365523 141.780347,70.5086418 L142.162952,69.8264255 C142.569631,70.1137279 142.996285,70.2573791 143.442914,70.2573791 C143.716423,70.2573791 143.945372,70.2000202 144.131296,70.0853022 C144.35205,69.9523107 144.462171,69.7680513 144.462171,69.5320167 C144.462171,69.2147658 144.247563,68.9269558 143.817836,68.6675715 C143.422938,68.4254456 143.028553,68.1863653 142.633142,67.949823 C142.20444,67.6107453 141.98932,67.1919741 141.98932,66.6965551 C141.98932,66.2640787 142.150148,65.9031741 142.472315,65.6118109 C142.794994,65.3214629 143.234453,65.1757812 143.791715,65.1757812 C144.314148,65.1757812 144.766411,65.2788243 145.149529,65.4859257 L145.141334,66.3315897 C144.692656,66.0671294 144.255246,65.935153 143.829617,65.935153 C143.562254,65.935153 143.349183,65.9894663 143.191941,66.0986006 C143.01165,66.2138262 142.920993,66.378289 142.920993,66.5904664 C142.920993,66.8899513 143.139698,67.1711625 143.576083,67.4361304 C143.978152,67.6777487 144.380221,67.9198746 144.782289,68.1609852 C145.218675,68.5056466 145.43738,68.9259406 145.43738,69.420852" id="Fill-31" fill="#818084"></path>
                <g id="Group-2" stroke-width="1" transform="translate(100.709056, -0.277344)">
                    <rect id="Rectangle-3" fill="#750A0C" transform="translate(22.703011, 11.289149) rotate(-315.000000) translate(-22.703011, -11.289149) " x="14.80048" y="3.50720991" width="15.8050614" height="15.5638787"></rect>
                    <g id="Group" transform="translate(0.281310, 0.000000)">
                        <rect id="Rectangle-3" fill="#243380" transform="translate(11.175866, 11.282668) rotate(-315.000000) translate(-11.175866, -11.282668) " x="3.27333539" y="3.50072857" width="15.8050614" height="15.5638787"></rect>
                        <rect id="Rectangle-3" fill="#818084" transform="translate(33.513686, 11.282668) rotate(-315.000000) translate(-33.513686, -11.282668) " x="25.6111555" y="3.50072857" width="15.8050614" height="15.5638787"></rect>
                        <path d="M16.8982756,16.788808 L11.3068645,11.1973969 L16.7277337,5.77652781 L22.3191447,11.3679389 L16.8982756,16.788808 Z" id="Combined-Shape" fill="#0C0411"></path>
                        <path d="M28.0671856,16.788808 L22.4757746,11.1973969 L27.8966437,5.77652781 L33.4880548,11.3679389 L28.0671856,16.788808 Z" id="Combined-Shape" fill="#0C0411"></path>
                    </g>
                    <g id="Group" transform="translate(0.000000, 5.546875)" fill="#0C0411">
                        <path d="M17.1795858,11.241933 L11.5881748,5.65052194 L17.0090439,0.229652808 L22.6004549,5.82106387 L17.1795858,11.241933 Z" id="Combined-Shape"></path>
                        <path d="M28.3484958,11.241933 L22.7570848,5.65052194 L28.1779539,0.229652808 L33.769365,5.82106387 L28.3484958,11.241933 Z" id="Combined-Shape"></path>
                    </g>
                </g>
            </g>
        </g>
    </g>
</svg>